# xmcd
#
# Track frame offsets:
#	150
#	9115
#	25430
#	36450
#	49112
#	62185
#	76465
#	83045
#	97977
#	108652
#	124547
#
# Disc length: 1850
#
# Revision: 1
# Processed by: cddbd v1.5.1PL0 Copyright (c) Steve Scherf et al.
# Submitted via: CDex 1.51
# Normalized: r0:TDELIM( - )
#
DISCID=8507380b
DTITLE=Various Artist - Lovin' the Blues
DYEAR=1900
DGENRE=Blues
TTITLE0=Billie Holiday - When your lover has gone
TTITLE1=John Lee Hooker - Mama You've got a daughter
TTITLE2=BB King - Catfish Blues
TTITLE3=Ray Charles - Rockin' chair Blues
TTITLE4=Billie Holiday - My man
TTITLE5=Ray Charles - Blues in my middle name
TTITLE6=Lightnin' Hopkins - Just pickin'
TTITLE7=BB King - BB Boogie
TTITLE8=Billie Holiday - Ain't nobody's business
TTITLE9=Memphis Slim - Forty Four Blues
TTITLE10=Leadbelly - Poor Howard Green Corn
EXTD=
EXTT0=
EXTT1=
EXTT2=
EXTT3=
EXTT4=
EXTT5=
EXTT6=
EXTT7=
EXTT8=
EXTT9=
EXTT10=
PLAYORDER=
